<svg xmlns="http://www.w3.org/2000/svg" width="64" height="64" viewBox="0 0 24 24" fill="none" stroke="#16a34a" stroke-width="2" stroke-linecap="round" stroke-linejoin="round">
  <path d="M19 17h2c.6 0 1-.4 1-1v-3c0-.9-.7-1.7-1.5-1.9C18.7 10.6 16 10 16 10s-1.3-1.4-2.2-2.3c-.5-.5-1.1-.7-1.8-.7H5c-.6 0-1.1.4-1.4.9l-1.9 2.5c-.3.4-.5.8-.6 1.3L1 13.5c0 .8.7 1.5 1.5 1.5H3"></path>
  <path d="M10.5 17h3"></path>
  <circle cx="6.5" cy="17" r="2.5"></circle>
  <circle cx="16.5" cy="17" r="2.5"></circle>
</svg>